<?xml version="1.0" encoding="UTF-8" standalone="no"?>
<svg
   viewBox="0 0 914 200"
   version="1.1"
   id="svg502"
   sodipodi:docname="waves_tb_full_adder.svg"
   inkscape:version="1.2.2 (b0a8486541, 2022-12-01)"
   xmlns:inkscape="http://www.inkscape.org/namespaces/inkscape"
   xmlns:sodipodi="http://sodipodi.sourceforge.net/DTD/sodipodi-0.dtd"
   xmlns="http://www.w3.org/2000/svg"
   xmlns:svg="http://www.w3.org/2000/svg">
  <defs
     id="defs506" />
  <sodipodi:namedview
     id="namedview504"
     pagecolor="#505050"
     bordercolor="#eeeeee"
     borderopacity="1"
     inkscape:showpageshadow="0"
     inkscape:pageopacity="0"
     inkscape:pagecheckerboard="0"
     inkscape:deskcolor="#505050"
     showgrid="false"
     inkscape:zoom="1.1619256"
     inkscape:cx="399.3371"
     inkscape:cy="6.0244821"
     inkscape:window-width="1920"
     inkscape:window-height="1015"
     inkscape:window-x="0"
     inkscape:window-y="0"
     inkscape:window-maximized="1"
     inkscape:current-layer="svg502" />
  <rect
     x="0"
     y="0"
     width="914"
     height="200"
     fill="#000000"
     id="rect318"
     sodipodi:insensitive="true" />
  <text
     x="150.44"
     y="34.344002"
     class="small"
     fill="#ffffff"
     text-anchor="middle"
     font-family="monospace"
     id="text320"
     style="font-size:18px;stroke-width:1.5">0</text>
  <text
     x="250.218"
     y="34.284"
     class="small"
     fill="#ffffff"
     text-anchor="middle"
     font-family="monospace"
     id="text322"
     style="font-size:18px;stroke-width:1.5">1</text>
  <text
     x="350.38"
     y="34.344002"
     class="small"
     fill="#ffffff"
     text-anchor="middle"
     font-family="monospace"
     id="text324"
     style="font-size:18px;stroke-width:1.5">2</text>
  <text
     x="450.35599"
     y="34.344002"
     class="small"
     fill="#ffffff"
     text-anchor="middle"
     font-family="monospace"
     id="text326"
     style="font-size:18px;stroke-width:1.5">3</text>
  <text
     x="550.5"
     y="34.307999"
     class="small"
     fill="#ffffff"
     text-anchor="middle"
     font-family="monospace"
     id="text328"
     style="font-size:18px;stroke-width:1.5">4</text>
  <text
     x="650.32001"
     y="34.284"
     class="small"
     fill="#ffffff"
     text-anchor="middle"
     font-family="monospace"
     id="text330"
     style="font-size:18px;stroke-width:1.5">5</text>
  <text
     x="750.44"
     y="34.344002"
     class="small"
     fill="#ffffff"
     text-anchor="middle"
     font-family="monospace"
     id="text332"
     style="font-size:18px;stroke-width:1.5">6</text>
  <text
     x="850.44"
     y="34.284"
     class="small"
     fill="#ffffff"
     text-anchor="middle"
     font-family="monospace"
     id="text334"
     style="font-size:18px;stroke-width:1.5">7</text>
  <text
     x="14.58"
     y="63.276001"
     class="small"
     fill="#ffffff"
     font-family="monospace"
     id="text336"
     style="font-size:18px;stroke-width:1.5">a</text>
  <line
     x1="116.85828"
     x2="199"
     y1="65"
     y2="65"
     stroke="#3db8b8"
     id="line338"
     style="stroke-width:0.906321" />
  <line
     x1="199.0"
     x2="299.0"
     y1="65"
     y2="65"
     stroke="#3DB8B8"
     id="line340" />
  <line
     x1="299.0"
     x2="399.0"
     y1="65"
     y2="65"
     stroke="#3DB8B8"
     id="line342" />
  <line
     x1="399.0"
     x2="499.0"
     y1="65"
     y2="65"
     stroke="#3DB8B8"
     id="line344" />
  <line
     x1="499.0"
     x2="504.0"
     y1="65"
     y2="65"
     stroke="#3DB8B8"
     id="line346" />
  <line
     x1="504.0"
     x2="504.0"
     y1="65"
     y2="45"
     stroke="#00FF00"
     id="line348" />
  <line
     x1="504.0"
     x2="599.0"
     y1="45"
     y2="45"
     stroke="#00FF00"
     id="line350" />
  <line
     x1="599.0"
     x2="699.0"
     y1="45"
     y2="45"
     stroke="#00FF00"
     id="line352" />
  <line
     x1="699.0"
     x2="799.0"
     y1="45"
     y2="45"
     stroke="#00FF00"
     id="line354" />
  <line
     x1="799.0"
     x2="899.0"
     y1="45"
     y2="45"
     stroke="#00FF00"
     id="line356" />
  <text
     x="14.52"
     y="94.559998"
     class="small"
     fill="#ffffff"
     font-family="monospace"
     id="text358"
     style="font-size:18px;stroke-width:1.5">b</text>
  <line
     x1="116.85828"
     x2="199"
     y1="95"
     y2="95"
     stroke="#3db8b8"
     id="line360"
     style="stroke-width:0.906321" />
  <line
     x1="199.0"
     x2="299.0"
     y1="95"
     y2="95"
     stroke="#3DB8B8"
     id="line362" />
  <line
     x1="299.0"
     x2="304.0"
     y1="95"
     y2="95"
     stroke="#3DB8B8"
     id="line364" />
  <line
     x1="304.0"
     x2="304.0"
     y1="95"
     y2="75"
     stroke="#00FF00"
     id="line366" />
  <line
     x1="304.0"
     x2="399.0"
     y1="75"
     y2="75"
     stroke="#00FF00"
     id="line368" />
  <line
     x1="399.0"
     x2="499.0"
     y1="75"
     y2="75"
     stroke="#00FF00"
     id="line370" />
  <line
     x1="499.0"
     x2="504.0"
     y1="75"
     y2="75"
     stroke="#00FF00"
     id="line372" />
  <line
     x1="504.0"
     x2="504.0"
     y1="75"
     y2="95"
     stroke="#3DB8B8"
     id="line374" />
  <line
     x1="504.0"
     x2="599.0"
     y1="95"
     y2="95"
     stroke="#3DB8B8"
     id="line376" />
  <line
     x1="599.0"
     x2="699.0"
     y1="95"
     y2="95"
     stroke="#3DB8B8"
     id="line378" />
  <line
     x1="699.0"
     x2="704.0"
     y1="95"
     y2="95"
     stroke="#3DB8B8"
     id="line380" />
  <line
     x1="704.0"
     x2="704.0"
     y1="95"
     y2="75"
     stroke="#00FF00"
     id="line382" />
  <line
     x1="704.0"
     x2="799.0"
     y1="75"
     y2="75"
     stroke="#00FF00"
     id="line384" />
  <line
     x1="799.0"
     x2="899.0"
     y1="75"
     y2="75"
     stroke="#00FF00"
     id="line386" />
  <text
     x="14.49"
     y="184.07401"
     class="small"
     fill="#ffffff"
     font-family="monospace"
     id="text472"
     style="font-size:18px;stroke-width:1.5">carry_out</text>
  <line
     x1="116.85828"
     x2="199"
     y1="185"
     y2="185"
     stroke="#3db8b8"
     id="line474"
     style="stroke-width:0.906321" />
  <line
     x1="199.0"
     x2="299.0"
     y1="185"
     y2="185"
     stroke="#3DB8B8"
     id="line476" />
  <line
     x1="299.0"
     x2="399.0"
     y1="185"
     y2="185"
     stroke="#3DB8B8"
     id="line478" />
  <line
     x1="399.0"
     x2="404.0"
     y1="185"
     y2="185"
     stroke="#3DB8B8"
     id="line480" />
  <line
     x1="404.0"
     x2="404.0"
     y1="185"
     y2="165"
     stroke="#00FF00"
     id="line482" />
  <line
     x1="404.0"
     x2="499.0"
     y1="165"
     y2="165"
     stroke="#00FF00"
     id="line484" />
  <line
     x1="499.0"
     x2="504.0"
     y1="165"
     y2="165"
     stroke="#00FF00"
     id="line486" />
  <line
     x1="504.0"
     x2="504.0"
     y1="165"
     y2="185"
     stroke="#3DB8B8"
     id="line488" />
  <line
     x1="504.0"
     x2="599.0"
     y1="185"
     y2="185"
     stroke="#3DB8B8"
     id="line490" />
  <line
     x1="599.0"
     x2="604.0"
     y1="185"
     y2="185"
     stroke="#3DB8B8"
     id="line492" />
  <line
     x1="604.0"
     x2="604.0"
     y1="185"
     y2="165"
     stroke="#00FF00"
     id="line494" />
  <line
     x1="604.0"
     x2="699.0"
     y1="165"
     y2="165"
     stroke="#00FF00"
     id="line496" />
  <line
     x1="699.0"
     x2="799.0"
     y1="165"
     y2="165"
     stroke="#00FF00"
     id="line498" />
  <line
     x1="799.0"
     x2="899.0"
     y1="165"
     y2="165"
     stroke="#00FF00"
     id="line500" />
  <g
     inkscape:groupmode="layer"
     id="layer1"
     inkscape:label="Layer 1"
     transform="translate(0,-30.014831)">
    <text
       x="14.49"
       y="154.56"
       class="small"
       fill="#ffffff"
       font-family="monospace"
       id="text426"
       style="font-size:18px;stroke-width:1.5">carry_in</text>
    <line
       x1="116.85828"
       x2="199"
       y1="155"
       y2="155"
       stroke="#3db8b8"
       id="line428"
       style="stroke-width:0.906321" />
    <line
       x1="199"
       x2="204"
       y1="155"
       y2="155"
       stroke="#3db8b8"
       id="line430" />
    <line
       x1="204"
       x2="204"
       y1="155"
       y2="135"
       stroke="#00ff00"
       id="line432" />
    <line
       x1="204"
       x2="299"
       y1="135"
       y2="135"
       stroke="#00ff00"
       id="line434" />
    <line
       x1="299"
       x2="304"
       y1="135"
       y2="135"
       stroke="#00ff00"
       id="line436" />
    <line
       x1="304"
       x2="304"
       y1="135"
       y2="155"
       stroke="#3db8b8"
       id="line438" />
    <line
       x1="304"
       x2="399"
       y1="155"
       y2="155"
       stroke="#3db8b8"
       id="line440" />
    <line
       x1="399"
       x2="404"
       y1="155"
       y2="155"
       stroke="#3db8b8"
       id="line442" />
    <line
       x1="404"
       x2="404"
       y1="155"
       y2="135"
       stroke="#00ff00"
       id="line444" />
    <line
       x1="404"
       x2="499"
       y1="135"
       y2="135"
       stroke="#00ff00"
       id="line446" />
    <line
       x1="499"
       x2="504"
       y1="135"
       y2="135"
       stroke="#00ff00"
       id="line448" />
    <line
       x1="504"
       x2="504"
       y1="135"
       y2="155"
       stroke="#3db8b8"
       id="line450" />
    <line
       x1="504"
       x2="599"
       y1="155"
       y2="155"
       stroke="#3db8b8"
       id="line452" />
    <line
       x1="599"
       x2="604"
       y1="155"
       y2="155"
       stroke="#3db8b8"
       id="line454" />
    <line
       x1="604"
       x2="604"
       y1="155"
       y2="135"
       stroke="#00ff00"
       id="line456" />
    <line
       x1="604"
       x2="699"
       y1="135"
       y2="135"
       stroke="#00ff00"
       id="line458" />
    <line
       x1="699"
       x2="704"
       y1="135"
       y2="135"
       stroke="#00ff00"
       id="line460" />
    <line
       x1="704"
       x2="704"
       y1="135"
       y2="155"
       stroke="#3db8b8"
       id="line462" />
    <line
       x1="704"
       x2="799"
       y1="155"
       y2="155"
       stroke="#3db8b8"
       id="line464" />
    <line
       x1="799"
       x2="804"
       y1="155"
       y2="155"
       stroke="#3db8b8"
       id="line466" />
    <line
       x1="804"
       x2="804"
       y1="155"
       y2="135"
       stroke="#00ff00"
       id="line468" />
    <line
       x1="804"
       x2="899"
       y1="135"
       y2="135"
       stroke="#00ff00"
       id="line470" />
  </g>
  <g
     inkscape:groupmode="layer"
     id="layer2"
     inkscape:label="Layer 2"
     transform="translate(0,29.971806)"
     style="display:inline">
    <text
       x="14.49"
       y="123.276"
       class="small"
       fill="#ffffff"
       font-family="monospace"
       id="text388"
       style="font-size:18px;stroke-width:1.5">c</text>
    <line
       x1="116.85828"
       x2="199"
       y1="125"
       y2="125"
       stroke="#3db8b8"
       id="line390"
       style="stroke-width:0.906321" />
    <line
       x1="199"
       x2="204"
       y1="125"
       y2="125"
       stroke="#3db8b8"
       id="line392" />
    <line
       x1="204"
       x2="204"
       y1="125"
       y2="105"
       stroke="#00ff00"
       id="line394" />
    <line
       x1="204"
       x2="299"
       y1="105"
       y2="105"
       stroke="#00ff00"
       id="line396" />
    <line
       x1="299"
       x2="399"
       y1="105"
       y2="105"
       stroke="#00ff00"
       id="line398" />
    <line
       x1="399"
       x2="404"
       y1="105"
       y2="105"
       stroke="#00ff00"
       id="line400" />
    <line
       x1="404"
       x2="404"
       y1="105"
       y2="125"
       stroke="#3db8b8"
       id="line402" />
    <line
       x1="404"
       x2="499"
       y1="125"
       y2="125"
       stroke="#3db8b8"
       id="line404" />
    <line
       x1="499"
       x2="504"
       y1="125"
       y2="125"
       stroke="#3db8b8"
       id="line406" />
    <line
       x1="504"
       x2="504"
       y1="125"
       y2="105"
       stroke="#00ff00"
       id="line408" />
    <line
       x1="504"
       x2="599"
       y1="105"
       y2="105"
       stroke="#00ff00"
       id="line410" />
    <line
       x1="599"
       x2="604"
       y1="105"
       y2="105"
       stroke="#00ff00"
       id="line412" />
    <line
       x1="604"
       x2="604"
       y1="105"
       y2="125"
       stroke="#3db8b8"
       id="line414" />
    <line
       x1="604"
       x2="699"
       y1="125"
       y2="125"
       stroke="#3db8b8"
       id="line416" />
    <line
       x1="699"
       x2="799"
       y1="125"
       y2="125"
       stroke="#3db8b8"
       id="line418" />
    <line
       x1="799"
       x2="804"
       y1="125"
       y2="125"
       stroke="#3db8b8"
       id="line420" />
    <line
       x1="804"
       x2="804"
       y1="125"
       y2="105"
       stroke="#00ff00"
       id="line422" />
    <line
       x1="804"
       x2="899"
       y1="105"
       y2="105"
       stroke="#00ff00"
       id="line424" />
  </g>
</svg>
